<svg width="80" height="80" viewBox="30 30 80 80" fill="none" xmlns="http://www.w3.org/2000/svg">
  <style>
    .medium-rotate {
      transform-origin: 67.4px 67.4px;
      animation: rotate-medium 2.5s linear infinite;
    }
    .slow-rotate {
      transform-origin: 67.4px 67.4px;
      animation: rotate-slow 4s linear infinite;
    }
    .reverse-rotate {
      transform-origin: 67.4px 67.4px;
      animation: rotate-reverse 4s linear infinite;
    }
    @keyframes rotate-medium {
      from { transform: rotate(0deg); }
      to { transform: rotate(360deg); }
    }
    @keyframes rotate-slow {
      from { transform: rotate(0deg); }
      to { transform: rotate(360deg); }
    }
    @keyframes rotate-reverse {
      from { transform: rotate(0deg); }
      to { transform: rotate(-360deg); }
    }
  </style>

  <g class="medium-rotate">
    <path fill-rule="evenodd" clip-rule="evenodd" d="M66.05 62.4606C65.1163 62.7478 64.2899 63.3094 63.6777 64.073C63.0655 64.8365 62.6956 65.7667 62.616 66.7434C62.332 69.9489 64.0269 70.1448 64.7811 72.2194C65.3756 73.8488 65.0828 77.6152 65.1094 79.6053C65.1361 81.9648 66.9241 83.9593 69.1025 82.361C70.6155 81.2436 70.1718 78.194 70.1629 75.9235C70.1629 71.8499 70.2428 72.5488 71.9376 69.9979C74.4755 66.1647 70.6643 60.938 66.0678 62.4606H66.05Z" fill="#1A3C4C"/>
    <path fill-rule="evenodd" clip-rule="evenodd" d="M65.0606 52.5105C50.2773 55.2796 49.2302 72.8205 57.802 79.2536C59 80.144 60.8235 79.9392 61.2716 78.4166C62.1589 75.4605 55.7744 74.5523 56.5509 66.5432C56.6772 65.0403 57.1105 63.5797 57.824 62.2523C58.5375 60.9249 59.5158 59.7591 60.698 58.8277C61.8801 57.8963 63.2408 57.2192 64.6951 56.8385C66.1495 56.4579 67.6664 56.3819 69.1513 56.6152C76.9423 57.7282 81.1749 66.9928 76.6139 73.653C75.9573 74.6102 74.1027 76.3554 73.9519 76.7961C73.3973 78.3499 74.9768 82.4769 79.5023 76.7961C87.8656 66.3072 78.5129 49.9907 65.0606 52.5105Z" fill="#FF9A26"/>
  </g>

  <g class="reverse-rotate">
    <path fill-rule="evenodd" clip-rule="evenodd" d="M38.5819 72.1927C37.1089 73.1944 37.7567 74.7259 38.4355 76.6803C40.9107 83.9604 46.0548 90.022 52.8229 93.6339C59.591 97.2458 67.4755 98.137 74.8747 96.1267C77.488 95.4589 76.8802 91.3586 73.8587 92.1199C62.2122 95.2363 49.3322 89.7826 43.7641 78.5814C42.575 76.1684 41.7942 70.0335 38.5819 72.1927Z" fill="#3DC1CE"/>
    <path fill-rule="evenodd" clip-rule="evenodd" d="M64.2841 44.8843C38.7904 48.9623 38.4932 83.9505 61.8705 89.8494C63.2725 90.2056 66.3339 90.7754 67.8335 90.4994C69.9499 90.1032 70.1495 87.1827 68.3171 86.5371C66.3517 85.8471 62.5493 86.6796 57.7088 83.5632C44.7046 75.1623 46.0845 55.8005 60.9432 50.0664C64.7288 48.6155 68.8818 48.4389 72.7761 49.5633C74.4164 50.0565 75.9799 50.7773 77.4214 51.7047C78.4197 52.3503 80.4384 54.5317 82.0578 52.9112C84.7598 50.2133 78.1712 47.1503 76.0504 46.2599C72.3255 44.7381 68.258 44.2626 64.2841 44.8843Z" fill="#3DC1CE"/>
  </g>

  <g class="slow-rotate">
    <path fill-rule="evenodd" clip-rule="evenodd" d="m 67.919456,32.042637 c -8.4299,-0.7034 -16.5891,2.4842 -22.7961,7.702 -1.5618,1.6339 0.4437,4.5143 3.2921,2.4708 6.5265,-5.1019 11.6776,-6.0413 19.402,-6.1081 2.9149,-0.0267 3.4252,-3.7308 0.102,-4.0647 z" fill="#3DC1CE"/>
  </g>
</svg>
